<?xml version="1.0" encoding="UTF-8" standalone="no"?>
<!DOCTYPE svg PUBLIC "-//W3C//DTD SVG 1.1//EN" "http://www.w3.org/Graphics/SVG/1.1/DTD/svg11.dtd">
<svg width="100%" height="100%" viewBox="0 0 4724 1340" version="1.1" xmlns="http://www.w3.org/2000/svg" xmlns:xlink="http://www.w3.org/1999/xlink" xml:space="preserve" xmlns:serif="http://www.serif.com/" style="fill-rule:evenodd;clip-rule:evenodd;stroke-linecap:round;stroke-linejoin:round;stroke-miterlimit:1.5;">
    <g transform="matrix(1,0,0,1,-5727.92,-9209.7)">
        <g id="Beetle" transform="matrix(1.1692,0,0,0.697574,-4013.32,5128.36)">
            <rect x="8331.56" y="5850.75" width="4040.3" height="1919.77" style="fill:none;"/>
            <g transform="matrix(0.570045,-0.104747,0.0655337,0.903352,4137.06,1164.27)">
                <path d="M9436.77,7002.67C9436.77,7002.67 10444,6779.94 10454,6783C10463.9,6786.07 10591.7,6972.05 10630.8,7049.36C10669.8,7126.66 10212.1,7199.37 9906.72,7273.61C9601.33,7347.85 9549.28,7295.04 9494.18,7252.18C9439.07,7209.32 9406.92,7126.66 9395.44,7090.69C9383.96,7054.71 9408.45,7032.52 9436.77,7002.67Z" style="fill-opacity:0.2;"/>
                <path d="M9436.77,7002.67C9436.77,7002.67 10444,6779.94 10454,6783C10463.9,6786.07 10591.7,6972.05 10630.8,7049.36C10669.8,7126.66 10212.1,7199.37 9906.72,7273.61C9601.33,7347.85 9549.28,7295.04 9494.18,7252.18C9439.07,7209.32 9406.92,7126.66 9395.44,7090.69C9383.96,7054.71 9408.45,7032.52 9436.77,7002.67Z" style="fill-opacity:0.3;"/>
            </g>
            <g id="Wheel-Fill" serif:id="Wheel Fill" transform="matrix(0.334329,0,0,0.572639,6898.36,2449.83)">
                <g transform="matrix(1.82955,0,0,1.7,-8115.59,-4830.16)">
                    <path d="M9796.97,7065.99C9820.34,7084.65 9818.5,7125.87 9792.86,7157.98C9767.22,7190.07 9727.43,7200.98 9704.05,7182.31C9680.68,7163.64 9682.52,7122.42 9708.17,7090.32C9733.81,7058.22 9773.6,7047.32 9796.97,7065.99Z" style="fill:rgb(114,114,124);"/>
                </g>
                <g transform="matrix(1.82955,0,0,1.7,-8115.59,-4830.16)">
                    <path d="M10440.7,6893.36C10461.2,6909.68 10459.5,6945.7 10437.1,6973.76C10414.7,7001.81 10379.9,7011.34 10359.5,6995.03C10339.1,6978.71 10340.7,6942.69 10363.1,6914.63C10385.5,6886.58 10420.3,6877.05 10440.7,6893.36Z" style="fill:rgb(114,114,124);"/>
                </g>
                <g transform="matrix(1.82955,0,0,1.7,-8115.59,-4830.16)">
                    <path d="M10375.1,7035.34C10361.7,7035.41 10349.3,7031.64 10339.3,7023.63C10308.8,6999.29 10311.7,6944.95 10345.7,6902.35C10379.7,6859.75 10432.1,6844.92 10462.6,6869.26C10493,6893.6 10490.2,6947.94 10456.1,6990.54C10433.4,7018.99 10402.5,7035.06 10375.4,7035.34C10375.3,7035.34 10375.2,7035.34 10375.1,7035.34ZM10440.7,6893.36C10420.3,6877.05 10385.5,6886.58 10363.1,6914.63C10340.7,6942.69 10339.1,6978.71 10359.5,6995.03C10379.9,7011.34 10414.7,7001.81 10437.1,6973.76C10459.5,6945.7 10461.2,6909.68 10440.7,6893.36Z" style="fill:rgb(33,33,33);"/>
                </g>
                <g transform="matrix(1.82955,0,0,1.7,-8115.59,-4830.16)">
                    <path d="M9722.84,7228.42C9707.19,7228.71 9692.62,7224.41 9680.89,7215.04C9646.02,7187.19 9649.33,7125.01 9688.27,7076.27C9727.2,7027.53 9787.11,7010.56 9821.98,7038.4C9856.84,7066.25 9853.53,7128.43 9814.59,7177.18C9788.76,7209.52 9753.7,7227.87 9722.84,7228.42ZM9796.97,7065.99C9773.6,7047.32 9733.81,7058.22 9708.17,7090.32C9682.52,7122.42 9680.68,7163.64 9704.05,7182.31C9727.43,7200.98 9767.22,7190.07 9792.86,7157.98C9818.5,7125.87 9820.34,7084.65 9796.97,7065.99Z" style="fill:rgb(33,33,33);"/>
                </g>
                <g transform="matrix(1.82955,0,0,1.7,-8115.59,-4830.16)">
                    <path d="M9722.84,7228.42C9638.56,7231.59 9618.84,7197.97 9620.56,7153.38C9683.98,7077.29 9688.27,7076.27 9688.27,7076.27C9649.33,7125.01 9646.02,7187.19 9680.89,7215.04C9692.62,7224.41 9707.19,7228.71 9722.84,7228.42Z" style="fill:rgb(11,11,11);"/>
                </g>
                <g transform="matrix(1.82955,0,0,1.7,-8115.59,-4830.16)">
                    <path d="M9722.84,7228.42C9707.19,7228.71 9692.62,7224.41 9680.89,7215.04C9646.02,7187.19 9649.33,7125.01 9688.27,7076.27C9727.2,7027.53 9787.11,7010.56 9821.98,7038.4C9856.84,7066.25 9853.53,7128.43 9814.59,7177.18C9788.76,7209.52 9753.7,7227.87 9722.84,7228.42ZM9796.97,7065.99C9773.6,7047.32 9733.81,7058.22 9708.17,7090.32C9682.52,7122.42 9680.68,7163.64 9704.05,7182.31C9727.43,7200.98 9767.22,7190.07 9792.86,7157.98C9818.5,7125.87 9820.34,7084.65 9796.97,7065.99Z" style="fill:rgb(33,33,33);"/>
                </g>
                <g transform="matrix(1.82955,0,0,1.7,-8115.59,-4830.16)">
                    <path d="M9722.84,7228.42C9638.56,7231.59 9618.84,7197.97 9620.56,7153.38C9683.98,7077.29 9688.27,7076.27 9688.27,7076.27C9649.33,7125.01 9646.02,7187.19 9680.89,7215.04C9692.62,7224.41 9707.19,7228.71 9722.84,7228.42Z" style="fill:rgb(11,11,11);"/>
                </g>
                <g transform="matrix(1.82955,0,0,1.7,-8115.59,-4830.16)">
                    <path d="M10297.1,7014.94C10297.1,7014.94 10294.2,6917.05 10345.7,6902.35C10311.7,6944.95 10308.8,6999.29 10339.3,7023.63C10349.3,7031.64 10361.7,7035.41 10375.1,7035.34C10318.5,7035.77 10310,7031.81 10297.1,7014.94Z" style="fill:rgb(11,11,11);"/>
                </g>
            </g>
            <g id="Wheels" transform="matrix(0.382546,0,0,0.655226,5974.87,2048.98)">
                <g transform="matrix(1.23016,0.913042,-1.41007,1.6403,9021.48,-13755.2)">
                    <ellipse cx="9784.28" cy="7194.16" rx="82.1" ry="79.994" style="fill:none;stroke:black;stroke-width:6.72px;"/>
                </g>
                <g transform="matrix(0.824741,0.612136,-0.92863,1.08025,9523.13,-6785.83)">
                    <ellipse cx="9784.28" cy="7194.16" rx="82.1" ry="79.994" style="fill:none;stroke:black;stroke-width:10.14px;"/>
                </g>
                <g transform="matrix(1.59894,0,0,1.48573,-4678.62,-3609.57)">
                    <path d="M9722.84,7228.42C9638.56,7231.59 9618.84,7197.97 9620.56,7153.38" style="fill:none;stroke:black;stroke-width:7.97px;"/>
                </g>
                <g transform="matrix(1.59894,0,0,1.48573,-3637.88,-3893.68)">
                    <path d="M9724.49,7226.56C9667.61,7227.02 9659.17,7223.07 9646.16,7206.17" style="fill:none;stroke:black;stroke-width:7.97px;"/>
                </g>
                <g transform="matrix(0.720789,0.534981,-0.811583,0.944092,10736.9,-5318.74)">
                    <ellipse cx="9784.28" cy="7194.16" rx="82.1" ry="79.994" style="fill:none;stroke:black;stroke-width:11.6px;"/>
                </g>
                <g transform="matrix(1.0751,0.79796,-1.23234,1.43355,10298.4,-11409.7)">
                    <ellipse cx="9784.28" cy="7194.16" rx="82.1" ry="79.994" style="fill:none;stroke:black;stroke-width:7.68px;"/>
                </g>
                <g transform="matrix(1.59894,0,0,1.48573,-4678.62,-3609.57)">
                    <path d="M9620.56,7153.38C9683.98,7077.29 9688.27,7076.27 9688.27,7076.27" style="fill:none;stroke:black;stroke-width:7.97px;"/>
                </g>
                <g transform="matrix(1.59894,0,0,1.48573,-4678.62,-3609.57)">
                    <path d="M10297.1,7014.94C10297.1,7014.94 10294.2,6917.05 10345.7,6902.35" style="fill:none;stroke:black;stroke-width:7.97px;"/>
                </g>
            </g>
            <g id="Fill" transform="matrix(0.334329,0,0,0.572639,6898.36,2449.83)">
                <g transform="matrix(1.82955,0,0,1.7,-8115.59,-4830.16)">
                    <path d="M9801.03,6635.55C9821.95,6617.43 9848.45,6601.76 9881.72,6593.15C10067.1,6545.19 10212,6515.36 10435.4,6706.83C10494.3,6757.35 10488.4,6798.11 10488.4,6798.11C10488.4,6798.11 10482.1,6795.48 10471.5,6793.45C10369.6,6562.28 10002.8,6712.16 9983.94,6739.18C9978.66,6746.75 9953.96,6772.94 9909.74,6863.93C9904.11,6875.51 9893.64,6875.02 9893.64,6875.02C9899.2,6873.95 9899.49,6869.52 9895.83,6862.89C9905.32,6855.99 9959.95,6741.24 9947.5,6725.65C9891.38,6655.33 9801.03,6635.55 9801.03,6635.55Z" style="fill:rgb(109,155,192);"/>
                </g>
                <g transform="matrix(1.82955,0,0,1.7,-8115.59,-4830.16)">
                    <path d="M9572.45,6818.55L9730.15,6745.77C9785.34,6760.35 9879.58,6833.39 9895.83,6862.89C9899.49,6869.52 9899.2,6873.95 9893.64,6875.02C9794.78,6894.05 9717.38,6923.11 9657.98,6955.63C9583.45,6996.44 9537.24,7042.71 9512.52,7081.53C9505.86,7091.98 9451.73,7053.07 9452.59,7034.1C9457.66,6922.68 9549.36,6837.85 9572.45,6818.55Z" style="fill:rgb(109,155,192);"/>
                </g>
                <g transform="matrix(1.82955,0,0,1.7,-8115.59,-4830.16)">
                    <path d="M9913.6,7078.01C9895.86,7074.81 9889.28,6950.76 9737.56,6947.79C9737.56,6947.79 10359.6,6780.26 10409.8,6796.96C10365.4,6811.41 10314.2,6857.4 10290.8,6985.19C10290.5,6986.72 9915.94,7078.44 9913.6,7078.01Z" style="fill:rgb(103,130,152);"/>
                </g>
                <g transform="matrix(1.82955,0,0,1.7,-8115.59,-4830.16)">
                    <path d="M9730.15,6745.77C9730.15,6745.77 9746.9,6682.44 9801.03,6635.55C9801.03,6635.55 9891.38,6655.33 9947.5,6725.65C9959.95,6741.24 9905.32,6855.99 9895.83,6862.89C9879.58,6833.39 9785.34,6760.35 9730.15,6745.77Z" style="fill:rgb(10,10,32);"/>
                </g>
                <g transform="matrix(1.82955,0,0,1.7,-8115.59,-4830.16)">
                    <path d="M10197.5,6696.71C10262.4,6677.16 10361.3,6688.08 10380,6731.77C10398.7,6775.46 10213.3,6806.5 10208.7,6805.64C10204.1,6804.78 10197.5,6696.71 10197.5,6696.71Z" style="fill:rgb(10,10,32);"/>
                </g>
                <g transform="matrix(1.82955,0,0,1.7,-8115.59,-4830.16)">
                    <path d="M10015,6747.56L10012.8,6854.81C9977.25,6860.4 9949.5,6861.51 9947.4,6852.2C9943.54,6835.09 9955.22,6784.8 10015,6747.56Z" style="fill:rgb(10,10,32);"/>
                </g>
                <g transform="matrix(1.82955,0,0,1.7,-8115.59,-4830.16)">
                    <path d="M10012.8,6854.81L10015,6747.56C10048.6,6726.6 10097.4,6709.78 10167.3,6705.33C10167.3,6705.33 10185.4,6811.1 10178.2,6815.41C10173.5,6818.22 10079.4,6844.36 10012.8,6854.81Z" style="fill:rgb(10,10,32);"/>
                </g>
                <g transform="matrix(1.82955,0,0,1.7,-8115.59,-4830.16)">
                    <path d="M9874.97,7122.07C9926.08,7119.7 9913.6,7078.01 9913.6,7078.01C9915.94,7078.44 10290.5,6986.72 10290.8,6985.19L10328.7,7003.8C10327.4,7008.46 9882.13,7141.83 9874.97,7122.07Z" style="fill:rgb(84,84,84);"/>
                </g>
                <g transform="matrix(1.82955,0,0,1.7,-8115.59,-4830.16)">
                    <path d="M10518.6,6799.24C10518.6,6799.24 10543.6,6811.2 10525.9,6840.54C10525.9,6840.54 10516.7,6810.06 10518.6,6799.24Z" style="fill:rgb(166,12,20);"/>
                </g>
                <g transform="matrix(1.82955,0,0,1.7,-8115.59,-4830.16)">
                    <path d="M10488.4,6798.11L10518.6,6799.24C10516.7,6810.06 10525.9,6840.54 10525.9,6840.54C10515.7,6825.35 10488.4,6798.11 10488.4,6798.11Z" style="fill:rgb(64,93,117);"/>
                </g>
                <g transform="matrix(1.82955,0,0,1.7,-8115.59,-4830.16)">
                    <path d="M9737.56,6947.79C9737.56,6947.79 10359.6,6780.26 10409.8,6796.96C10365.4,6811.41 10314.2,6857.4 10290.8,6985.19C10290.5,6986.72 9915.94,7078.44 9913.6,7078.01C9895.86,7074.81 9889.28,6950.76 9737.56,6947.79Z" style="fill:rgb(64,93,117);"/>
                </g>
                <g transform="matrix(1.82955,0,0,1.7,-8115.59,-4830.16)">
                    <path d="M9801.03,6635.55C9821.95,6617.43 9848.45,6601.76 9881.72,6593.15C10067.1,6545.19 10212,6515.36 10435.4,6706.83C10494.3,6757.35 10488.4,6798.11 10488.4,6798.11C10488.4,6798.11 10482.1,6795.48 10471.5,6793.45C10369.6,6562.28 10002.8,6712.16 9983.94,6739.18C9978.66,6746.75 9953.96,6772.94 9909.74,6863.93C9904.11,6875.51 9893.64,6875.02 9893.64,6875.02C9899.2,6873.95 9899.49,6869.52 9895.83,6862.89C9905.32,6855.99 9959.95,6741.24 9947.5,6725.65C9891.38,6655.33 9801.03,6635.55 9801.03,6635.55Z" style="fill:rgb(133,182,223);"/>
                </g>
                <g transform="matrix(1.82955,0,0,1.7,-8115.59,-4830.16)">
                    <path d="M9572.45,6818.55L9730.15,6745.77C9785.34,6760.35 9879.58,6833.39 9895.83,6862.89C9899.49,6869.52 9899.2,6873.95 9893.64,6875.02C9794.78,6894.05 9717.38,6923.11 9657.98,6955.63C9583.45,6996.44 9537.24,7042.71 9512.52,7081.53C9505.86,7091.98 9451.73,7053.07 9452.59,7034.1C9457.66,6922.68 9549.36,6837.85 9572.45,6818.55Z" style="fill:rgb(133,182,223);"/>
                </g>
                <g transform="matrix(1.82955,0,0,1.7,-8115.59,-4830.16)">
                    <path d="M10328.7,7003.8L10290.8,6985.19C10314.2,6857.4 10365.4,6811.41 10409.8,6796.96C10434.4,6788.95 10457,6790.63 10471.5,6793.45C10482.1,6795.48 10488.4,6798.11 10488.4,6798.11C10488.4,6798.11 10515.7,6825.35 10525.9,6840.54C10532.3,6850 10553,6892.94 10548.1,6911.16C10545,6922.94 10527.6,6926.27 10515.1,6911.67C10403.1,6779.86 10351.4,6924.1 10328.7,7003.8Z" style="fill:rgb(93,136,171);"/>
                </g>
                <g transform="matrix(1.82955,0,0,1.7,-8115.59,-4830.16)">
                    <path d="M9657.98,6955.63C9717.38,6923.11 9794.78,6894.05 9893.64,6875.02C9893.64,6875.02 9904.11,6875.51 9909.74,6863.93C9953.96,6772.94 9978.66,6746.75 9983.94,6739.18C10002.8,6712.16 10369.6,6562.28 10471.5,6793.45C10457,6790.63 10434.4,6788.95 10409.8,6796.96C10359.6,6780.26 9737.56,6947.79 9737.56,6947.79C9714.55,6947.34 9688.2,6949.67 9657.98,6955.63ZM10197.5,6696.71C10197.5,6696.71 10204.1,6804.78 10208.7,6805.64C10213.3,6806.5 10398.7,6775.46 10380,6731.77C10361.3,6688.08 10262.4,6677.16 10197.5,6696.71ZM10012.8,6854.81C10079.4,6844.36 10173.5,6818.22 10178.2,6815.41C10185.4,6811.1 10167.3,6705.33 10167.3,6705.33C10097.4,6709.78 10048.6,6726.6 10015,6747.56C9955.22,6784.8 9943.54,6835.09 9947.4,6852.2C9949.5,6861.51 9977.25,6860.4 10012.8,6854.81Z" style="fill:rgb(93,136,171);"/>
                </g>
                <g transform="matrix(1.82955,0,0,1.7,-8115.59,-4830.16)">
                    <path d="M9423.86,7009.97C9423.86,7009.97 9412.05,6956.9 9428.07,6912.08C9452.72,6843.1 9572.45,6818.55 9572.45,6818.55C9549.36,6837.85 9457.66,6922.68 9452.59,7034.1C9451.73,7053.07 9505.86,7091.98 9512.52,7081.53C9537.24,7042.71 9583.45,6996.44 9657.98,6955.63C9688.2,6949.67 9714.55,6947.34 9737.56,6947.79C9889.28,6950.76 9895.86,7074.81 9913.6,7078.01C9913.6,7078.01 9926.08,7119.7 9874.97,7122.07C9788.19,6882.48 9631.87,7178.65 9600.73,7162.61C9428.04,7073.61 9423.86,7009.97 9423.86,7009.97ZM9448.17,6894.96C9440.32,6893.06 9430.9,6904.07 9427.14,6919.54C9423.38,6935.01 9426.7,6949.11 9434.55,6951.02C9442.4,6952.93 9451.82,6941.92 9455.58,6926.45C9459.34,6910.98 9456.02,6896.87 9448.17,6894.96ZM9589.51,7026.02C9579.75,7024.15 9569.45,7034.97 9566.54,7050.18C9563.62,7065.38 9569.18,7079.25 9578.95,7081.12C9588.71,7082.99 9599.01,7072.16 9601.92,7056.96C9604.84,7041.76 9599.27,7027.89 9589.51,7026.02Z" style="fill:rgb(93,136,171);"/>
                </g>
            </g>
            <g id="Mesh" transform="matrix(0.334329,0,0,0.572639,6898.36,2449.83)">
                <g transform="matrix(1.82955,0,0,1.7,-8115.59,-4830.16)">
                    <path d="M10015,6747.56L10012.8,6854.81" style="fill:none;stroke:black;stroke-width:7.97px;"/>
                </g>
                <g transform="matrix(1.82955,0,0,1.7,-8115.59,-4830.16)">
                    <path d="M10167.3,6705.33C10167.3,6705.33 10185.4,6811.1 10178.2,6815.41C10171,6819.72 9953.44,6878.93 9947.4,6852.2C9941.37,6825.47 9973.27,6717.69 10167.3,6705.33" style="fill:none;stroke:black;stroke-width:7.97px;"/>
                </g>
                <g transform="matrix(1.82955,0,0,1.7,-8115.59,-4830.16)">
                    <path d="M9737.56,6947.79C9737.56,6947.79 10359.6,6780.26 10409.8,6796.96" style="fill:none;stroke:black;stroke-width:7.97px;"/>
                </g>
                <g transform="matrix(1.82955,0,0,1.7,-8115.59,-4830.16)">
                    <path d="M9801.03,6635.55C9801.03,6635.55 9891.38,6655.33 9947.5,6725.65C9959.95,6741.24 9905.32,6855.99 9895.83,6862.89" style="fill:none;stroke:black;stroke-width:7.97px;"/>
                </g>
                <g transform="matrix(1.82955,0,0,1.7,-8115.59,-4830.16)">
                    <path d="M10488.4,6798.11C10488.4,6798.11 10336.6,6735.44 10290.8,6985.19C10290.5,6986.72 9915.94,7078.44 9913.6,7078.01C9893.17,7074.32 9887.55,6910.36 9657.98,6955.63" style="fill:none;stroke:black;stroke-width:7.97px;"/>
                </g>
                <g transform="matrix(2.55708,0.57734,-0.555794,2.12538,-11140.3,-13229.5)">
                    <ellipse cx="9443.01" cy="6924.22" rx="10.175" ry="22.419" style="fill:rgb(240,193,73);stroke:black;stroke-width:5.89px;"/>
                </g>
                <g transform="matrix(3.18118,0.566533,-0.430883,2.08897,-17637.1,-12653.4)">
                    <ellipse cx="9443.01" cy="6924.22" rx="10.175" ry="22.419" style="fill:rgb(240,193,73);stroke:black;stroke-width:5.2px;"/>
                </g>
                <g transform="matrix(1.82215,0,0,1.63162,-8043.62,-4364.51)">
                    <path d="M9473.95,7058.72C9473.95,7058.72 9498.79,6866.95 9729.87,6810.04" style="fill:none;stroke:black;stroke-width:8.14px;"/>
                </g>
                <g transform="matrix(1.82955,0,0,1.7,-8115.59,-4830.16)">
                    <path d="M9423.86,7009.97C9423.86,7009.97 9412.05,6956.9 9428.07,6912.08C9452.72,6843.1 9572.45,6818.55 9572.45,6818.55L9730.15,6745.77C9730.15,6745.77 9762.34,6624.04 9881.72,6593.15C10067.1,6545.19 10212,6515.36 10435.4,6706.83C10494.3,6757.35 10488.4,6798.11 10488.4,6798.11" style="fill:none;stroke:black;stroke-width:7.97px;"/>
                </g>
                <g transform="matrix(1.82955,0,0,1.7,-8115.59,-4830.16)">
                    <path d="M9572.45,6818.55C9549.36,6837.85 9457.66,6922.68 9452.59,7034.1C9451.73,7053.07 9505.86,7091.98 9512.52,7081.53C9556.94,7011.77 9670.76,6917.93 9893.64,6875.02C9923.93,6869.18 9797.74,6763.62 9730.15,6745.77" style="fill:none;stroke:black;stroke-width:7.97px;"/>
                </g>
                <g transform="matrix(1.82955,0,0,1.7,-8115.59,-4830.16)">
                    <path d="M9893.64,6875.02C9893.64,6875.02 9904.11,6875.51 9909.74,6863.93C9953.96,6772.94 9978.66,6746.75 9983.94,6739.18C10002.8,6712.16 10369.6,6562.28 10471.5,6793.45" style="fill:none;stroke:black;stroke-width:7.97px;"/>
                </g>
                <g transform="matrix(1.82955,0,0,1.7,-8115.59,-4830.16)">
                    <path d="M9423.86,7009.97C9423.86,7009.97 9428.04,7073.61 9600.73,7162.61C9631.87,7178.65 9788.19,6882.48 9874.97,7122.07C9882.13,7141.83 10327.4,7008.46 10328.7,7003.8C10351.4,6924.1 10403.1,6779.86 10515.1,6911.67C10527.6,6926.27 10545,6922.94 10548.1,6911.16C10553,6892.94 10532.3,6850 10525.9,6840.54C10515.7,6825.35 10488.4,6798.11 10488.4,6798.11L10518.6,6799.24C10518.6,6799.24 10543.6,6811.2 10525.9,6840.54C10525.9,6840.54 10516.7,6810.06 10518.6,6799.24" style="fill:none;stroke:black;stroke-width:7.97px;"/>
                </g>
                <g transform="matrix(1.82955,0,0,1.7,-8115.59,-4830.16)">
                    <path d="M9913.6,7078.01C9913.6,7078.01 9926.08,7119.7 9874.97,7122.07" style="fill:none;stroke:black;stroke-width:7.97px;"/>
                </g>
                <g transform="matrix(1.82955,0,0,1.7,-8115.59,-4830.16)">
                    <path d="M10290.8,6985.19L10328.7,7003.8" style="fill:none;stroke:black;stroke-width:7.97px;"/>
                </g>
                <g transform="matrix(1.82955,0,0,1.7,-8115.59,-4830.16)">
                    <path d="M10197.5,6696.71C10197.5,6696.71 10204.1,6804.78 10208.7,6805.64C10213.3,6806.5 10398.7,6775.46 10380,6731.77C10361.3,6688.08 10262.4,6677.16 10197.5,6696.71" style="fill:none;stroke:black;stroke-width:7.97px;"/>
                </g>
                <g transform="matrix(1.82955,0,0,1.7,-8115.59,-4830.16)">
                    <path d="M9914.01,6901.55L9913.6,7078.01" style="fill:none;stroke:black;stroke-width:7.97px;"/>
                </g>
                <g transform="matrix(1.82955,0,0,1.7,-8115.59,-4830.16)">
                    <path d="M10194.4,6832.9L10195.3,7009.57" style="fill:none;stroke:black;stroke-width:7.97px;"/>
                </g>
                <g transform="matrix(1.82955,0,0,1.7,-8115.59,-4830.16)">
                    <path d="M10139.3,6866.41C10139.3,6866.41 10169.6,6853.67 10180.9,6858.08" style="fill:none;stroke:black;stroke-width:7.97px;"/>
                </g>
            </g>
        </g>
    </g>
</svg>
