<?xml version="1.0" encoding="UTF-8" standalone="no"?>
<!DOCTYPE svg PUBLIC "-//W3C//DTD SVG 1.1//EN" "http://www.w3.org/Graphics/SVG/1.1/DTD/svg11.dtd">
<svg width="100%" height="100%" viewBox="0 0 4727 1680" version="1.1" xmlns="http://www.w3.org/2000/svg" xmlns:xlink="http://www.w3.org/1999/xlink" xml:space="preserve" xmlns:serif="http://www.serif.com/" style="fill-rule:evenodd;clip-rule:evenodd;stroke-linecap:round;stroke-linejoin:round;stroke-miterlimit:1.5;">
    <g transform="matrix(1,0,0,1,-6895.91,0)">
        <g id="Mountain-Range" serif:id="Mountain Range" transform="matrix(0.527136,0,0,0.740154,6809.51,-130.013)">
            <rect x="163.902" y="175.657" width="8965.83" height="2269.31" style="fill:none;"/>
            <clipPath id="_clip1">
                <rect x="163.902" y="175.657" width="8965.83" height="2269.31"/>
            </clipPath>
            <g clip-path="url(#_clip1)">
                <g id="Fill" transform="matrix(1.24326,0,0,1.35107,-1136.91,-349.428)">
                    <g transform="matrix(1.52586,0,0,1,-84.8141,0.657093)">
                        <path d="M1383.1,784.146C1378.68,729.065 1375.1,642.636 1386.8,572.357C1386.8,580.149 1392.52,588.188 1422.58,606.977C1450.89,624.67 1443.82,631.373 1469.31,651.763C1483.45,663.071 1586.17,693.633 1592.96,694.603C1641.86,701.588 1645.51,721.977 1658.82,735.283C1683.19,759.657 1733.8,819.821 1734.14,821.174C1756.42,910.287 1801.07,883.426 1838.32,967.218C1858.63,1012.92 1903.67,992.276 1937.38,1057.68C1820.08,1002.68 1819.13,1006.31 1809.11,1001.3C1673.48,933.475 1577.8,912.683 1538.44,887.381C1526.37,879.624 1388.55,789.598 1383.1,784.146Z" style="fill:rgb(65,66,66);"/>
                    </g>
                    <g transform="matrix(1.52586,0,0,1,-84.8141,0.657093)">
                        <path d="M2231.68,685.78C2222.93,687.236 2217.57,691.857 2212.19,705.313C2196.91,743.497 2195.88,743.531 2160.59,764.704C2119.39,789.418 2010.19,796.679 1995.79,789.477C1987.05,785.977 1980.61,782.252 1973.96,777.893C2019.91,766.404 2097.31,717.883 2117.64,707.153C2174.97,676.884 2201.66,679.62 2231.68,685.78Z" style="fill:rgb(70,103,56);"/>
                    </g>
                    <g transform="matrix(1.52586,0,0,1,163.902,175.657)">
                        <path d="M3021.69,575.204C3040.55,560.344 3061,543.341 3083.23,523.891C3094.28,514.223 3118.1,489.51 3122.1,484.081C3145.4,518.563 3146.7,513.881 3150.08,512.914C3184.03,528.757 3178.1,557.928 3167.47,595.132C3145.75,612.887 3117.32,628.842 3082.93,632.28C3082.51,622.933 3036.17,580.032 3021.69,575.204Z" style="fill:rgb(36,45,46);"/>
                    </g>
                    <g transform="matrix(1.52586,0,0,1,163.902,175.657)">
                        <path d="M2941.77,736.466C3000.88,691.867 3020.64,588.138 3021.69,575.204C3036.17,580.032 3082.51,622.933 3082.93,632.28C3085.18,681.582 3042.9,713.249 3020.25,730.235C3001.8,720.716 2996.87,718.132 2988.31,714.288C2969.64,723.614 2954.64,730.757 2941.77,736.466Z" style="fill:rgb(52,48,48);"/>
                    </g>
                    <g transform="matrix(1.52586,0,0,1,163.902,175.657)">
                        <path d="M1567.02,640.901C1554.43,625.498 1516.07,580.536 1495.82,560.283C1482.51,546.977 1478.86,526.588 1429.96,519.603C1423.17,518.633 1320.45,488.071 1306.31,476.763C1280.82,456.373 1287.89,449.67 1259.58,431.977C1229.52,413.188 1223.8,405.149 1223.8,397.357C1227.36,375.97 1232.34,356.079 1239.14,339.022C1240.77,334.943 1242.5,331.026 1244.34,327.29C1249.96,332.918 1253.35,339.435 1324.81,397.9C1357.49,424.641 1431.31,431.301 1498.63,474.282C1496.6,509.377 1515.96,552.863 1525.32,562.694C1537.33,575.318 1542.58,576.509 1555.4,604.804C1556.75,607.783 1566.63,628.769 1567.02,640.901Z" style="fill:rgb(102,103,102);"/>
                    </g>
                    <g transform="matrix(1.52586,0,0,1,-84.8141,0.657093)">
                        <path d="M1386.8,572.357C1369.27,677.631 1386.03,819.143 1388.55,837.245C1453.96,1308.37 1409.43,1382.38 1403.31,1419.09C1296.11,1323.8 1286.58,1176.75 1303.8,1133.71C1353.53,1009.38 1276.61,996.729 1326.19,872.776C1383.82,728.687 1255.45,708.822 1285.3,651.763C1320.94,583.613 1321.83,567.7 1341.99,554.887C1342.85,554.37 1343.71,553.847 1344.58,553.319C1372.19,536.455 1401.83,514.178 1402.14,514.022C1395.34,531.079 1390.36,550.97 1386.8,572.357Z" style="fill:rgb(36,45,46);"/>
                    </g>
                    <g transform="matrix(1.52586,0,0,1,-84.8141,0.657093)">
                        <path d="M1407.34,502.29C1419.28,478.04 1435.84,461.387 1458.55,457.335C1629.72,458.134 1666.95,564.291 1795.48,666.849C1803.74,675.111 1799.75,671.024 1825.66,696.928C1861.44,732.712 1854.84,730.401 1852.93,766.309C1839.97,758.692 1839.55,760.375 1829.55,749.126C1778.85,692.082 1746.09,718.199 1691.3,671.236C1617.35,607.846 1525.39,603.648 1487.81,572.9C1416.35,514.435 1412.96,507.918 1407.34,502.29Z" style="fill:rgb(60,62,62);"/>
                    </g>
                    <g transform="matrix(1.52586,0,0,1,-84.8141,0.657093)">
                        <path d="M1403.31,1419.09C1409.43,1382.38 1453.96,1308.37 1388.55,837.245C1387.71,831.228 1385.3,811.573 1383.1,784.146C1388.55,789.598 1526.37,879.624 1538.44,887.381C1577.8,912.683 1673.48,933.475 1809.11,1001.3C1819.13,1006.31 1820.08,1002.68 1937.38,1057.68C1903.67,992.276 1858.63,1012.92 1838.32,967.218C1801.07,883.426 1756.42,910.287 1734.14,821.174C1734.08,820.945 1732.59,819.035 1730.02,815.901C1729.63,803.769 1719.75,782.783 1718.4,779.804C1705.58,751.509 1700.33,750.318 1688.32,737.694C1678.96,727.863 1659.6,684.377 1661.63,649.282C1671.72,655.721 1681.66,662.976 1691.3,671.236C1746.09,718.199 1778.85,692.082 1829.55,749.126C1839.55,760.375 1839.97,758.692 1852.93,766.309C1854.84,730.401 1861.44,732.712 1825.66,696.928C1799.75,671.024 1803.74,675.111 1795.48,666.849C1828.14,692.912 1866.69,718.742 1914.84,742.552C1947.43,758.668 1961.09,769.465 1973.96,777.893C1980.61,782.252 1987.05,785.977 1995.79,789.477C2081.5,852.802 2056.33,883.176 2135.58,953.877C2202.09,1013.22 2406.96,1076.98 2420.56,1080.59C2576.82,1122.07 2586.58,1141.05 2613.31,1160.08C2611.6,1162.61 2609.86,1165 2608.09,1167.24C2542.26,1250.74 2168.58,1176.54 1545.25,1365.43C1437.85,1397.98 1438.21,1407 1403.31,1419.09Z" style="fill:rgb(84,114,71);"/>
                    </g>
                    <g transform="matrix(1.52586,0,0,1,163.902,175.657)">
                        <path d="M2504.84,602.361C2512.03,605.642 2518.09,607.211 2566.84,625.172C2577.53,629.112 2723.01,674.792 2781.38,676.561C2831.47,678.079 2885.47,682.499 3021.69,575.204C3020.64,588.138 3000.88,691.867 2941.77,736.466C2890.78,759.09 2873.26,759.209 2793.72,783.516C2774.21,789.475 2755.91,796.071 2738.7,803.135C2734.94,801.042 2721.69,792.972 2648.12,736.923C2558.87,668.923 2538.93,636.45 2504.84,602.361Z" style="fill:rgb(102,103,102);"/>
                    </g>
                    <g transform="matrix(1.52586,0,0,1,163.902,175.657)">
                        <path d="M2450.31,985.078C2508.98,898.345 2537.29,644.2 2504.84,602.361C2538.93,636.45 2558.87,668.923 2648.12,736.923C2721.69,792.972 2734.94,801.042 2738.7,803.135C2584.91,866.241 2517.49,966.755 2450.31,985.078Z" style="fill:rgb(65,66,66);"/>
                    </g>
                    <g transform="matrix(1.52586,0,0,1,163.902,175.657)">
                        <path d="M3465.13,342.616C3477.24,343.655 3494.68,347.236 3522.5,358.207C3556.88,371.759 3574.51,376.315 3591.65,382.949C3577.81,393.332 3583.44,468.671 3595.27,483.454C3560.51,502.844 3524.28,523.809 3502.34,545.748C3494.86,553.232 3412.69,635.399 3409.57,640.076C3340.39,743.854 3116.43,779.274 3113.19,777.654C3142.51,762.992 3195.95,686.675 3246.82,644.286C3333.62,571.952 3387.27,479.88 3399.61,442.846C3402.33,440.389 3434.99,417.282 3445.76,394.201C3453.13,378.419 3464.33,351.788 3465.13,342.616Z" style="fill:rgb(135,135,135);"/>
                    </g>
                    <g transform="matrix(1.52586,0,0,1,163.902,175.657)">
                        <path d="M4451.17,409.546C4469.56,418.568 4485.75,425.973 4500.28,431.983C4498.09,512.957 4478.97,514.735 4415.57,565.452C4368.06,603.462 4339.76,620.322 4314.9,637.894C4284.43,607.426 4174.37,613.941 4172.03,613.68C4097.23,605.37 4158.14,515.77 4084.74,498.498C4106.03,496.688 4132.88,492.893 4167.67,485.936C4211.93,477.083 4254.03,467.273 4255.76,458.651C4256.28,458.614 4296.75,463.939 4350.09,453.194C4396.29,443.887 4418.22,430.355 4451.17,409.546Z" style="fill:rgb(102,103,102);"/>
                    </g>
                    <g transform="matrix(1.52586,0,0,1,163.902,175.657)">
                        <path d="M3591.65,382.949C3607.89,389.235 3623.68,397.388 3652.85,416.83C3654.85,418.165 3658.71,420.738 3679.88,430.04C3664.1,445.815 3630.44,463.828 3595.27,483.454C3583.44,468.671 3577.81,393.332 3591.65,382.949Z" style="fill:rgb(102,103,102);"/>
                    </g>
                    <g transform="matrix(1.52586,0,0,1,163.902,175.657)">
                        <path d="M2941.77,736.466C3000.88,691.867 3020.64,588.138 3021.69,575.204C3036.17,580.032 3082.51,622.933 3082.93,632.28C3085.18,681.582 3042.9,713.249 3020.25,730.235C3001.8,720.716 2996.87,718.132 2988.31,714.288C2969.64,723.614 2954.64,730.757 2941.77,736.466Z" style="fill:rgb(135,135,135);"/>
                    </g>
                    <g transform="matrix(1.52586,0,0,1,163.902,175.657)">
                        <path d="M4245.67,339.976C4333.76,342.357 4332.64,350.328 4441.34,404.68C4444.69,406.352 4447.96,407.974 4451.17,409.546C4418.22,430.355 4396.29,443.887 4350.09,453.194C4296.75,463.939 4256.28,458.614 4255.76,458.651C4251.79,456.611 4143.92,401 4129.85,370.036C4148.34,362.247 4158.99,357.127 4203.47,346.538C4225.53,341.287 4232.48,340.193 4245.67,339.976Z" style="fill:rgb(36,45,46);"/>
                    </g>
                    <g transform="matrix(1.52586,0,0,1,163.902,175.657)">
                        <path d="M4629.55,451.22C4657.15,446.725 4688.75,438.26 4735.85,430.441C4757.25,446.585 4787.02,464.923 4819.98,481.97C4795.62,530.672 4749.07,561.059 4721.47,565.659C4660.28,575.856 4504.98,622.158 4446.36,671.005C4468.35,612.363 4518.86,536.633 4629.55,451.22Z" style="fill:rgb(36,45,46);"/>
                    </g>
                    <g transform="matrix(1.52586,0,0,1,163.902,175.657)">
                        <path d="M3996.16,493.732C4009.01,495.337 4021.84,498.718 4043.24,499.641C3967.36,528.096 3953.13,570.202 3849.6,584.992C3806.28,591.181 3692.73,580.146 3685.66,578.732C3717.1,550.784 3744.93,525.406 3760.94,509.396C3762.47,507.866 3773.41,496.921 3780.49,490.691C3838.35,493.902 3837.85,498.555 3930.89,496.923C3946.87,496.643 3976.3,491.461 3996.16,493.732Z" style="fill:rgb(102,103,102);"/>
                    </g>
                    <g transform="matrix(1.52586,0,0,1,163.902,175.657)">
                        <path d="M4819.98,481.97C4841.31,493.009 4863.98,503.507 4886.58,512.517C4881.73,546.522 4969.21,620.013 4983.39,660.761C4997.33,700.833 5005.75,758.851 4989.68,823.113C4955.44,825.016 4943.32,821.672 4894.32,826.103C4818.43,832.967 4710.44,827.991 4674.48,740.235C4598.75,807.646 4571.39,815.019 4510.96,882.996C4475.27,923.153 4471.76,918.245 4445.68,942.747C4413.63,953.565 4390.86,965.538 4350.23,968.247C4358.09,944.65 4368.47,955.735 4399.2,908.461C4432.43,857.343 4437.17,857.307 4435.84,796.204C4435.71,790.166 4419.1,743.725 4446.36,671.005C4504.98,622.158 4660.28,575.856 4721.47,565.659C4749.07,561.059 4795.62,530.672 4819.98,481.97Z" style="fill:rgb(102,103,102);"/>
                    </g>
                    <g transform="matrix(1.52586,0,0,1,163.902,175.657)">
                        <path d="M3679.88,430.04C3759.42,365.556 3781.1,436.547 3927.88,424.314C3949.45,422.517 3988.7,412.957 4027.07,402.257C3933.16,464.865 3880.65,449.036 3840.03,455.681C3803.84,461.602 3633.8,521.991 3595.27,483.454C3630.44,463.828 3664.1,445.815 3679.88,430.04Z" style="fill:rgb(36,45,46);"/>
                    </g>
                    <g transform="matrix(1.52586,0,0,1,163.902,175.657)">
                        <path d="M3369.08,375.669C3383.43,364.91 3442.21,340.651 3465.13,342.616C3464.33,351.788 3453.13,378.419 3445.76,394.201C3434.99,417.282 3402.33,440.389 3399.61,442.846C3395.62,440.985 3390.7,438.311 3376.54,430.996C3349.75,417.158 3351.49,404.995 3330.19,383.693C3338.29,381.486 3354.05,383.418 3369.08,375.669Z" style="fill:rgb(36,45,46);"/>
                    </g>
                    <g transform="matrix(1.52586,0,0,1,163.902,175.657)">
                        <path d="M3150.08,512.914C3150.31,512.849 3215.51,415.557 3224.83,418.243C3235.64,421.358 3247.11,427.254 3259.6,433.719C3245.52,468.926 3266.92,472.977 3217.02,539.512C3214.62,542.712 3197.43,570.635 3167.47,595.132C3178.1,557.928 3184.03,528.757 3150.08,512.914Z" style="fill:rgb(65,66,66);"/>
                    </g>
                    <g transform="matrix(1.52586,0,0,1,163.902,175.657)">
                        <path d="M5094.52,805.318C5088.29,805.909 5077.13,805.612 5058.07,807.345C5021.45,810.674 5005.18,816.581 4989.68,823.113C5005.75,758.851 4997.33,700.833 4983.39,660.761C4969.21,620.013 4881.73,546.522 4886.58,512.517C4929.17,529.495 4971.49,541.191 5004.13,541.273C5150.78,541.639 5151.82,511.559 5313.77,538.55C5311.82,594.991 5299.68,624.731 5312.52,659.539C5304.74,661.486 5198.57,728.058 5094.52,805.318Z" style="fill:rgb(135,135,135);"/>
                    </g>
                    <g transform="matrix(1.52586,0,0,1,-8051.91,-1887.34)">
                        <path d="M9411.44,2465.26C9458.21,2452.22 9503.67,2437.48 9514.21,2433.04C9528.29,2464 9636.15,2519.61 9640.12,2521.65C9638.4,2530.27 9596.3,2540.08 9552.03,2548.94C9436.28,2572.09 9408.43,2560.22 9380.53,2556.73C9360.67,2554.46 9331.23,2559.64 9315.25,2559.92C9222.22,2561.55 9222.72,2556.9 9164.85,2553.69C9160.49,2553.78 9116.55,2561.74 9074.46,2562.31C9049.86,2562.65 9020.28,2561.49 9006.51,2557.89C9068.31,2567.35 9193.9,2523.67 9224.4,2518.68C9265.01,2512.04 9317.52,2527.87 9411.44,2465.26Z" style="fill:rgb(65,66,66);"/>
                    </g>
                    <g transform="matrix(1.52586,0,0,1,-8051.91,-1887.34)">
                        <path d="M8497.55,2840.65C8500.79,2842.27 8724.76,2806.85 8793.94,2703.08C8797.06,2698.4 8879.22,2616.23 8886.7,2608.75C8908.65,2586.81 8944.88,2565.84 8979.63,2546.45C8985.69,2552.51 8994.99,2556.12 9006.51,2557.89C9020.28,2561.49 9049.86,2562.65 9074.46,2562.31C9116.55,2561.74 9160.49,2553.78 9164.85,2553.69C9157.78,2559.92 9146.84,2570.87 9145.3,2572.4C9092.96,2624.74 8914.32,2777.22 8895.84,2792.23C8833.83,2842.62 8685.38,2924.5 8667.2,2928.13C8653.64,2919.87 8642.11,2913.26 8633.35,2908.88C8575.2,2879.81 8531.18,2857.66 8497.55,2840.65Z" style="fill:rgb(102,103,102);"/>
                    </g>
                    <g transform="matrix(1.52586,0,0,1,163.902,175.657)">
                        <path d="M4500.28,431.983C4558.16,455.926 4589.7,457.71 4629.55,451.22C4518.86,536.633 4468.35,612.363 4446.36,671.005C4419.1,743.725 4435.71,790.166 4435.84,796.204C4420.52,760.998 4358.55,756.791 4398.98,633.756C4361.73,663.968 4343.21,673.41 4331.78,682.235C4296.77,709.286 4271.36,725.224 4219.9,733.059C4262.69,678.859 4286.57,657.915 4314.9,637.894C4339.76,620.322 4368.06,603.462 4415.57,565.452C4478.97,514.735 4498.09,512.957 4500.28,431.983Z" style="fill:rgb(65,66,66);"/>
                    </g>
                    <g transform="matrix(1.52586,0,0,1,163.902,175.657)">
                        <path d="M3259.6,433.719C3304.98,391.518 3323.51,385.513 3330.19,383.693C3351.49,404.995 3349.75,417.158 3376.54,430.996C3390.7,438.311 3395.62,440.985 3399.61,442.846C3387.27,479.88 3333.62,571.952 3246.82,644.286C3195.95,686.675 3142.51,762.992 3113.19,777.654C3063.6,752.578 3036.61,738.678 3020.25,730.235C3042.9,713.249 3085.18,681.582 3082.93,632.28C3117.32,628.842 3145.75,612.887 3167.47,595.132C3197.43,570.635 3214.62,542.712 3217.02,539.512C3266.92,472.977 3245.52,468.926 3259.6,433.719Z" style="fill:rgb(102,103,102);"/>
                    </g>
                    <g transform="matrix(1.52586,0,0,1,163.902,175.657)">
                        <path d="M4932.72,942.678C4912.48,941.79 4779.93,935.422 4702.1,930.637C4774.65,924.041 4801.14,867.712 4934.59,841.022C4962.13,835.514 4975.59,829.055 4989.68,823.113C5005.18,816.581 5021.45,810.674 5058.07,807.345C5077.13,805.612 5088.29,805.909 5094.52,805.318C5032.88,851.091 4971.98,900.617 4932.72,942.678Z" style="fill:rgb(84,114,71);"/>
                    </g>
                    <g transform="matrix(1.52586,0,0,1,163.902,175.657)">
                        <path d="M4122.65,1020.36C4112.11,1006.31 4016.65,990.912 4106.86,859.348C4167.1,771.497 4180.2,783.347 4219.9,733.059C4271.36,725.224 4296.77,709.286 4331.78,682.235C4343.21,673.41 4361.73,663.968 4398.98,633.756C4358.55,756.791 4420.52,760.998 4435.84,796.204C4437.17,857.307 4432.43,857.343 4399.2,908.461C4368.47,955.735 4358.09,944.65 4350.23,968.247C4284.58,971.53 4246.67,981.478 4245.36,981.697C4196.02,989.919 4157.74,1004.57 4122.65,1020.36Z" style="fill:rgb(50,80,41);"/>
                    </g>
                    <g transform="matrix(1.52586,0,0,1,163.902,175.657)">
                        <path d="M4445.68,942.747C4471.76,918.245 4475.27,923.153 4510.96,882.996C4571.39,815.019 4598.75,807.646 4674.48,740.235C4710.44,827.991 4818.43,832.967 4894.32,826.103C4943.32,821.672 4955.44,825.016 4989.68,823.113C4975.59,829.055 4962.13,835.514 4934.59,841.022C4801.14,867.712 4774.65,924.041 4702.1,930.637C4684.46,929.552 4669.63,928.549 4659.56,927.71C4539.46,917.702 4485.43,929.336 4445.68,942.747Z" style="fill:rgb(66,94,54);"/>
                    </g>
                    <g transform="matrix(1.52586,0,0,1,163.902,175.657)">
                        <path d="M2068.68,510.78C2059.93,512.236 2054.57,516.857 2049.19,530.313C2033.91,568.497 2032.88,568.531 1997.59,589.704C1956.39,614.418 1847.19,621.679 1832.79,614.477C1824.05,610.977 1817.61,607.252 1810.95,602.893C1856.91,591.404 1934.31,542.883 1954.64,532.153C2011.97,501.884 2038.66,504.62 2068.68,510.78Z" style="fill:rgb(66,94,54);"/>
                    </g>
                    <g transform="matrix(1.52586,0,0,1,163.902,175.657)">
                        <path d="M3335.96,1411.05C3330.2,1398.54 3294.47,1261.72 3423.62,1248.3C3884.05,1200.46 3977.01,1081.17 3980.24,1077.08C4034.53,1064.59 4075.74,1041.46 4122.65,1020.36C4157.74,1004.57 4196.02,989.919 4245.36,981.697C4246.67,981.478 4284.58,971.53 4350.23,968.247C4390.86,965.538 4413.63,953.565 4445.68,942.747C4485.43,929.336 4539.46,917.702 4659.56,927.71C4669.63,928.549 4684.46,929.552 4702.1,930.637C4779.93,935.422 4912.48,941.79 4932.72,942.678C4131.98,1276.32 4120.18,1274.38 4011.99,1301.43C3537.46,1420.06 3533.77,1404.24 3335.96,1411.05Z" style="fill:rgb(84,114,71);"/>
                    </g>
                    <g transform="matrix(1.52586,0,0,1,163.902,175.657)">
                        <path d="M3335.96,1411.05C3330.2,1398.54 3294.47,1261.72 3423.62,1248.3C3884.05,1200.46 3977.01,1081.17 3980.24,1077.08C4034.53,1064.59 4075.74,1041.46 4122.65,1020.36C4157.74,1004.57 4196.02,989.919 4245.36,981.697C4246.67,981.478 4284.58,971.53 4350.23,968.247C4390.86,965.538 4413.63,953.565 4445.68,942.747C4485.43,929.336 4539.46,917.702 4659.56,927.71C4669.63,928.549 4684.46,929.552 4702.1,930.637C4779.93,935.422 4912.48,941.79 4932.72,942.678C4131.98,1276.32 4120.18,1274.38 4011.99,1301.43C3537.46,1420.06 3533.77,1404.24 3335.96,1411.05Z" style="fill:rgb(100,155,77);"/>
                    </g>
                    <g transform="matrix(1.52586,0,0,1,163.902,175.657)">
                        <path d="M2806.42,1380.87C2952.52,1367.59 2953.22,1374.44 3096.42,1341.89C3224.02,1312.89 3182.66,1249.86 3260.91,1199.23C3328.31,1196.17 3370.86,1167.39 3457.06,1155.07C3464.8,1153.97 3484.35,1151.17 3551.23,1128.88C3583.31,1118.19 3589.62,1099.47 3625.56,1090.05C3636.05,1087.29 3649.07,1085.34 3665.99,1084.6C3780.82,1079.61 3811,1100.07 3944.76,1083.35C3957.26,1081.79 3969.03,1079.66 3980.24,1077.08C3977.01,1081.17 3884.05,1200.46 3423.62,1248.3C3294.47,1261.72 3330.2,1398.54 3335.96,1411.05C3161.66,1417.05 3104.11,1391.14 2806.42,1380.87Z" style="fill:rgb(84,114,71);"/>
                    </g>
                    <g transform="matrix(1.52586,0,0,1,163.902,175.657)">
                        <path d="M3625.56,1090.05C3604.46,1084.77 3385.41,927.618 3282.84,865.133C3301.92,864.475 3363.12,862.09 3450.49,850.058C3553.3,835.897 3550.14,825.145 3594.7,814.003C3657.9,798.204 3686.26,815.115 3703.84,815.952C3851.49,822.983 3974.9,733.881 4029.31,770.153C4125.77,834.461 4171.02,741.205 4219.9,733.059C4180.2,783.347 4167.1,771.497 4106.86,859.348C4016.65,990.912 4112.11,1006.31 4122.65,1020.36C4075.74,1041.46 4034.53,1064.59 3980.24,1077.08C3969.03,1079.66 3957.26,1081.79 3944.76,1083.35C3811,1100.07 3780.82,1079.61 3665.99,1084.6C3649.07,1085.34 3636.05,1087.29 3625.56,1090.05Z" style="fill:rgb(84,114,71);"/>
                    </g>
                    <g transform="matrix(1.52586,0,0,1,163.902,175.657)">
                        <path d="M3020.25,730.235C3036.61,738.678 3063.6,752.578 3113.19,777.654C3146.82,794.661 3190.84,816.809 3248.98,845.881C3257.74,850.263 3269.27,856.871 3282.84,865.133C3385.41,927.618 3604.46,1084.77 3625.56,1090.05C3589.62,1099.47 3583.31,1118.19 3551.23,1128.88C3484.35,1151.17 3464.8,1153.97 3457.06,1155.07C3370.86,1167.39 3328.31,1196.17 3260.91,1199.23C3251.77,1192.53 3241.15,1183.32 3239.41,1181.89C3201.88,1151.18 3201.96,1151.41 3158.95,1128.26C3036.31,1062.21 3006.49,1086.97 2961.88,1068.38C2957.41,1066.52 2918.95,1050.5 2907,1042.82C2802.43,975.588 2902.84,911.018 2933.82,880.041C2968.64,845.218 2963.53,841.222 2964.38,791.482C2964.89,761.4 2984.91,723.892 2988.31,714.288C2996.87,718.132 3001.8,720.716 3020.25,730.235Z" style="fill:rgb(100,155,77);"/>
                    </g>
                    <g transform="matrix(1.52586,0,0,1,163.902,175.657)">
                        <path d="M2450.31,985.078C2525.01,964.704 2600,842.706 2793.72,783.516C2873.26,759.209 2890.78,759.09 2941.77,736.466C2954.64,730.757 2969.64,723.614 2988.31,714.288C2984.91,723.892 2964.89,761.4 2964.38,791.482C2963.53,841.222 2968.64,845.218 2933.82,880.041C2902.84,911.018 2802.43,975.588 2907,1042.82C2918.95,1050.5 2957.41,1066.52 2961.88,1068.38C3006.49,1086.97 3036.31,1062.21 3158.95,1128.26C3201.96,1151.41 3201.88,1151.18 3239.41,1181.89C3241.15,1183.32 3251.77,1192.53 3260.91,1199.23C3182.66,1249.86 3224.02,1312.89 3096.42,1341.89C2953.22,1374.44 2952.52,1367.59 2806.42,1380.87C2767.08,1362.04 2656.44,1291.83 2598.1,1175.15C2518.98,1016.89 2452.01,986.778 2450.31,985.078Z" style="fill:rgb(50,80,41);"/>
                    </g>
                    <g transform="matrix(1.52586,0,0,1,163.902,175.657)">
                        <path d="M4219.9,733.059C4171.02,741.205 4125.77,834.461 4029.31,770.153C3974.9,733.881 3851.49,822.983 3703.84,815.952C3686.26,815.115 3657.9,798.204 3594.7,814.003C3550.14,825.145 3553.3,835.897 3450.49,850.058C3363.12,862.09 3301.92,864.475 3282.84,865.133C3301.02,861.497 3449.47,779.617 3511.48,729.234C3524.31,718.812 3614.3,642.156 3685.66,578.732C3692.73,580.146 3806.28,591.181 3849.6,584.992C3953.13,570.202 3967.36,528.096 4043.24,499.641C4054.36,500.121 4067.79,499.938 4084.74,498.498C4158.14,515.77 4097.23,605.37 4172.03,613.68C4174.37,613.941 4284.43,607.426 4314.9,637.894C4286.57,657.915 4262.69,678.859 4219.9,733.059Z" style="fill:rgb(135,135,135);"/>
                    </g>
                    <g transform="matrix(1.52586,0,0,1,163.902,175.657)">
                        <path d="M4445.68,942.747C4471.76,918.245 4475.27,923.153 4510.96,882.996C4571.39,815.019 4598.75,807.646 4674.48,740.235C4710.44,827.991 4818.43,832.967 4894.32,826.103C4943.32,821.672 4955.44,825.016 4989.68,823.113C4975.59,829.055 4962.13,835.514 4934.59,841.022C4801.14,867.712 4774.65,924.041 4702.1,930.637C4684.46,929.552 4669.63,928.549 4659.56,927.71C4539.46,917.702 4485.43,929.336 4445.68,942.747Z" style="fill:rgb(66,94,54);"/>
                    </g>
                    <g transform="matrix(1.52586,0,0,1,163.902,175.657)">
                        <path d="M480.177,773.157C487.96,768.049 523.625,750.056 526.132,748.233C740.42,592.386 717.816,629.928 760.581,581.548C792.239,545.733 773.634,552.203 811.209,536.372C933.446,484.871 996.979,458.092 1033.2,446.019C1133.13,412.708 1127.73,400.577 1145.36,396.17C1153.69,394.087 1166,387.689 1178.99,379.887C1163.29,389.861 1159.28,401.713 1141.46,438.619C1111.78,461.014 1126.18,466.062 809.762,655.91C787.88,669.04 758.752,697.769 644.246,793.192C593.452,835.52 597.942,874.917 514.754,921.71C500.835,903.151 478.068,790.027 480.177,773.157Z" style="fill:rgb(50,80,41);"/>
                    </g>
                    <g transform="matrix(1.52586,0,0,1,-8051.91,-1887.34)">
                        <path d="M6525.82,2501.62C6520.75,2512.12 6514.56,2524.66 6506.66,2539.76C6476.81,2596.82 6605.19,2616.69 6547.55,2760.78C6497.97,2884.73 6574.89,2897.38 6525.16,3021.71C6507.94,3064.74 6517.48,3211.8 6624.67,3307.09C6582.53,3370.3 6494.63,3641.18 6240.27,3801.83C6188.12,3834.76 6192.36,3839.24 6139.01,3870.36C6133.98,3873.29 5968.54,3953.58 5950.23,3959.6C5951.61,3958.91 5986.71,3072.3 5899.12,2984.71C5982.31,2937.92 5977.82,2898.52 6028.61,2856.19C6143.12,2760.77 6172.24,2732.04 6194.13,2718.91C6510.54,2529.06 6496.15,2524.01 6525.82,2501.62Z" style="fill:rgb(66,94,54);"/>
                    </g>
                </g>
                <g id="Cross" transform="matrix(1.89704,0,0,1.35107,-15398.1,-2899.36)">
                    <path d="M8920.55,2345.34L8920.55,2292.79L8920.55,2310.24L8940.3,2310.24L8900.41,2310.24" style="fill:none;stroke:rgb(67,31,0);stroke-width:5.56px;"/>
                </g>
                <g transform="matrix(1.89704,0,0,1.35107,-17157.8,-2899.36)">
                    <path d="M13865.1,2722.54C13862.3,2828.4 13862,2967.05 13862.6,3117.33C13668,3128.12 13581.7,3083.38 13485.3,3005.68C13524.6,2963.62 13585.5,2914.09 13647.1,2868.32C13751.2,2791.06 13857.3,2724.49 13865.1,2722.54Z" style="fill:rgb(102,103,102);"/>
                </g>
                <g transform="matrix(1.89704,0,0,1.35107,-17157.8,-2899.36)">
                    <path d="M13862.6,3117.33C13864.1,3450.32 13870.8,3840.37 13867.9,4057.14L9118.45,3959.6C9136.76,3953.58 9302.21,3873.29 9307.23,3870.36C9360.58,3839.24 9356.35,3834.76 9408.49,3801.83C9662.86,3641.18 9750.76,3370.3 9792.9,3307.09C9827.81,3295 9827.44,3285.98 9934.84,3253.43C10558.2,3064.54 10931.8,3138.74 10997.7,3055.24C10999.4,3053 11001.2,3050.61 11002.9,3048.08C11004.6,3049.78 11071.6,3079.89 11150.7,3238.15C11209,3354.83 11319.7,3425.04 11359,3443.87C11656.7,3454.14 11714.2,3480.05 11888.6,3474.05C12086.4,3467.24 12090.1,3483.06 12564.6,3364.43C12672.8,3337.38 12684.6,3339.32 13485.3,3005.68C13581.7,3083.38 13668,3128.12 13862.6,3117.33Z" style="fill:rgb(66,94,54);"/>
                </g>
                <g transform="matrix(1.89704,0,0,1.35107,-17157.8,-2899.36)">
                    <path d="M10621.3,2573.78C10634.1,2571.65 10654.2,2576.3 10692.3,2569.95C10695.5,2569.42 10765.4,2569.75 10811.1,2551.45C10829.5,2544.11 10809.2,2560.84 10868.5,2584.58C10919,2604.79 10919,2609.1 10969.8,2628.36C10976.9,2631.06 11051.4,2659.3 11057.4,2665.36C11089.9,2707.2 11061.6,2961.35 11002.9,3048.08C10976.2,3029.05 10966.4,3010.07 10810.2,2968.59C10796.6,2964.98 10591.7,2901.22 10525.2,2841.88C10445.9,2771.18 10471.1,2740.8 10385.4,2677.48C10399.8,2684.68 10509,2677.42 10550.2,2652.7C10585.5,2631.53 10586.5,2631.5 10601.8,2593.31C10607.2,2579.86 10612.5,2575.24 10621.3,2573.78Z" style="fill:rgb(100,155,77);"/>
                </g>
                <g id="Mesh" transform="matrix(1.24326,0,0,1.35107,-1136.91,-349.428)">
                    <g transform="matrix(1.52586,0,0,1,-8051.91,-1887.34)">
                        <path d="M9164.85,2553.69C9160.49,2553.78 9116.55,2561.74 9074.46,2562.31C9049.86,2562.65 9020.28,2561.49 9006.51,2557.89" style="fill:none;stroke:black;stroke-width:5.56px;"/>
                    </g>
                    <g transform="matrix(1.52586,0,0,1,163.902,175.657)">
                        <path d="M4350.23,968.247C4441.25,962.179 4442.6,909.63 4659.56,927.71C4714.09,932.254 4907.9,941.589 4932.72,942.678" style="fill:none;stroke:black;stroke-width:5.56px;"/>
                    </g>
                    <g transform="matrix(1.52586,0,0,1,163.902,175.657)">
                        <path d="M4219.9,733.059C4171.02,741.205 4125.77,834.461 4029.31,770.153C3974.9,733.881 3851.49,822.983 3703.84,815.952C3686.26,815.115 3657.9,798.204 3594.7,814.003C3550.14,825.145 3553.3,835.897 3450.49,850.058C3363.12,862.09 3301.92,864.475 3282.84,865.133" style="fill:none;stroke:black;stroke-width:5.56px;"/>
                    </g>
                    <g transform="matrix(1.52586,0,0,1,-84.8141,0.657093)">
                        <path d="M1458.55,457.335C1345.68,477.473 1384.61,808.879 1388.55,837.245C1453.96,1308.37 1409.43,1382.38 1403.31,1419.09" style="fill:none;stroke:black;stroke-width:5.56px;"/>
                    </g>
                    <g transform="matrix(1.52586,0,0,1,-84.8141,0.657093)">
                        <path d="M1458.55,457.335C1673.22,458.337 1677.23,625.051 1914.84,742.552C1964.29,767.001 1970.15,779.208 1995.79,789.477" style="fill:none;stroke:black;stroke-width:5.56px;"/>
                    </g>
                    <g transform="matrix(1.52586,0,0,1,-84.8141,0.657093)">
                        <path d="M1402.14,514.022C1401.67,514.256 1334.86,564.545 1308.36,571.17C1290.73,575.577 1296.13,587.708 1196.2,621.019C1159.98,633.092 1096.45,659.871 974.209,711.372C936.634,727.203 955.239,720.733 923.581,756.548C880.816,804.928 903.42,767.386 689.132,923.233C686.625,925.056 650.96,943.049 643.177,948.157" style="fill:none;stroke:black;stroke-width:5.56px;"/>
                    </g>
                    <g transform="matrix(1.52586,0,0,1,163.902,175.657)">
                        <path d="M2504.84,602.361C2538.93,636.45 2558.87,668.923 2648.12,736.923C2721.69,792.972 2734.94,801.042 2738.7,803.135" style="fill:none;stroke:black;stroke-width:5.56px;"/>
                    </g>
                    <g transform="matrix(1.52586,0,0,1,-84.8141,0.657093)">
                        <path d="M1383.1,784.146C1388.55,789.598 1526.37,879.624 1538.44,887.381C1577.8,912.683 1673.48,933.475 1809.11,1001.3C1819.13,1006.31 1820.08,1002.68 1937.38,1057.68C1903.67,992.276 1858.63,1012.92 1838.32,967.218C1801.07,883.426 1756.42,910.287 1734.14,821.174C1733.8,819.821 1683.19,759.657 1658.82,735.283C1645.51,721.977 1641.86,701.588 1592.96,694.603C1586.17,693.633 1483.45,663.071 1469.31,651.763C1443.82,631.373 1450.89,624.67 1422.58,606.977C1392.52,588.188 1386.8,580.149 1386.8,572.357" style="fill:none;stroke:black;stroke-width:5.56px;"/>
                    </g>
                    <g transform="matrix(1.52586,0,0,1,-84.8141,0.657093)">
                        <path d="M1407.34,502.29C1412.96,507.918 1416.35,514.435 1487.81,572.9C1525.39,603.648 1617.35,607.846 1691.3,671.236C1746.09,718.199 1778.85,692.082 1829.55,749.126C1839.55,760.375 1839.97,758.692 1852.93,766.309C1854.84,730.401 1861.44,732.712 1825.66,696.928C1799.75,671.024 1803.74,675.111 1795.48,666.849" style="fill:none;stroke:black;stroke-width:5.56px;"/>
                    </g>
                    <g transform="matrix(1.52586,0,0,1,-84.8141,0.657093)">
                        <path d="M1403.31,1419.09C1438.21,1407 1437.85,1397.98 1545.25,1365.43C2168.58,1176.54 2542.26,1250.74 2608.09,1167.24C2670.27,1088.38 2701.24,820.423 2667.84,777.361" style="fill:none;stroke:black;stroke-width:5.56px;"/>
                    </g>
                    <g transform="matrix(1.52586,0,0,1,-84.8141,0.657093)">
                        <path d="M1995.79,789.477C2010.19,796.679 2119.39,789.418 2160.59,764.704C2195.88,743.531 2196.91,743.497 2212.19,705.313C2225.45,672.156 2238.55,692.643 2302.73,681.946C2305.88,681.422 2375.76,681.748 2421.52,663.447C2439.87,656.106 2419.57,672.837 2478.93,696.582C2529.45,716.792 2529.44,721.102 2580.22,740.363C2587.33,743.062 2661.79,771.303 2667.84,777.361" style="fill:none;stroke:black;stroke-width:5.56px;"/>
                    </g>
                    <g transform="matrix(1.52586,0,0,1,-84.8141,0.657093)">
                        <path d="M2231.68,685.78C2201.66,679.62 2174.97,676.884 2117.64,707.153C2097.31,717.883 2019.91,766.404 1973.96,777.893" style="fill:none;stroke:black;stroke-width:5.56px;"/>
                    </g>
                    <g transform="matrix(1.52586,0,0,1,-84.8141,0.657093)">
                        <path d="M1344.58,553.319C1321.84,566.48 1322.41,580.81 1285.3,651.763C1255.45,708.822 1383.82,728.687 1326.19,872.776C1276.61,996.729 1353.53,1009.38 1303.8,1133.71C1286.58,1176.75 1296.11,1323.8 1403.31,1419.09" style="fill:none;stroke:black;stroke-width:5.56px;"/>
                    </g>
                    <g transform="matrix(1.52586,0,0,1,-84.8141,0.657093)">
                        <path d="M1304.46,613.619C1274.78,636.014 1289.18,641.062 972.762,830.91C950.88,844.04 921.752,872.769 807.246,968.192C756.452,1010.52 760.942,1049.92 677.754,1096.71" style="fill:none;stroke:black;stroke-width:5.56px;"/>
                    </g>
                    <g transform="matrix(1.52586,0,0,1,-84.8141,0.657093)">
                        <path d="M1661.63,649.282C1659.6,684.377 1678.96,727.863 1688.32,737.694C1700.33,750.318 1705.58,751.509 1718.4,779.804C1719.75,782.783 1729.63,803.769 1730.02,815.901" style="fill:none;stroke:black;stroke-width:5.56px;"/>
                    </g>
                    <g transform="matrix(1.52586,0,0,1,-84.8141,0.657093)">
                        <path d="M1995.79,789.477C2081.5,852.802 2056.33,883.176 2135.58,953.877C2202.09,1013.22 2406.96,1076.98 2420.56,1080.59C2576.82,1122.07 2586.58,1141.05 2613.31,1160.08" style="fill:none;stroke:black;stroke-width:5.56px;"/>
                    </g>
                    <g transform="matrix(1.52586,0,0,1,163.902,175.657)">
                        <path d="M2504.84,602.361C2512.03,605.642 2518.09,607.211 2566.84,625.172C2577.53,629.112 2723.01,674.792 2781.38,676.561C2838.41,678.289 2900.5,683.779 3083.23,523.891C3094.28,514.223 3118.1,489.51 3122.1,484.081C3145.4,518.563 3146.7,513.881 3150.08,512.914C3150.31,512.849 3215.51,415.557 3224.83,418.243C3235.64,421.358 3247.11,427.254 3259.6,433.719C3304.98,391.518 3323.51,385.513 3330.19,383.693C3338.29,381.486 3354.05,383.418 3369.08,375.669" style="fill:none;stroke:black;stroke-width:5.56px;"/>
                    </g>
                    <g transform="matrix(1.52586,0,0,1,163.902,175.657)">
                        <path d="M3369.08,375.669C3383.43,364.91 3442.21,340.651 3465.13,342.616C3477.24,343.655 3494.68,347.236 3522.5,358.207C3589.45,384.601 3592.91,376.87 3652.85,416.83C3654.85,418.165 3658.71,420.738 3679.88,430.04C3759.42,365.556 3781.1,436.547 3927.88,424.314C3975.74,420.325 4110.65,378.122 4129.85,370.036C4148.34,362.247 4158.99,357.127 4203.47,346.538C4225.53,341.287 4232.48,340.193 4245.67,339.976" style="fill:none;stroke:black;stroke-width:5.56px;"/>
                    </g>
                    <g transform="matrix(1.52586,0,0,1,163.902,175.657)">
                        <path d="M4245.67,339.976C4333.76,342.357 4332.64,350.328 4441.34,404.68C4593.23,480.625 4600.71,452.875 4735.85,430.441C4797.24,476.74 4927.42,541.081 5004.13,541.273C5150.78,541.639 5151.82,511.559 5313.77,538.55" style="fill:none;stroke:black;stroke-width:5.56px;"/>
                    </g>
                    <g transform="matrix(1.52586,0,0,1,163.902,175.657)">
                        <path d="M2450.31,985.078C2525.01,964.704 2600,842.706 2793.72,783.516C2893.34,753.075 2895.67,760.57 2988.31,714.288C3009.62,723.855 3008.45,725.618 3248.98,845.881C3324.02,883.402 3601.68,1084.07 3625.56,1090.05" style="fill:none;stroke:black;stroke-width:5.56px;"/>
                    </g>
                    <g transform="matrix(1.52586,0,0,1,163.902,175.657)">
                        <path d="M3113.19,777.654C3116.43,779.274 3340.39,743.854 3409.57,640.076C3412.69,635.399 3494.86,553.232 3502.34,545.748C3546.49,501.601 3648.52,461.4 3679.88,430.04" style="fill:none;stroke:black;stroke-width:5.56px;"/>
                    </g>
                    <g transform="matrix(1.52586,0,0,1,163.902,175.657)">
                        <path d="M3021.69,575.204C3036.17,580.032 3082.51,622.933 3082.93,632.28C3085.18,681.582 3042.9,713.249 3020.25,730.235" style="fill:none;stroke:black;stroke-width:5.56px;"/>
                    </g>
                    <g transform="matrix(1.52586,0,0,1,163.902,175.657)">
                        <path d="M3082.93,632.28C3164.76,624.098 3212.88,545.031 3217.02,539.512C3266.92,472.977 3245.52,468.926 3259.6,433.719" style="fill:none;stroke:black;stroke-width:5.56px;"/>
                    </g>
                    <g transform="matrix(1.52586,0,0,1,163.902,175.657)">
                        <path d="M3021.69,575.204C3020.64,588.138 3000.88,691.867 2941.77,736.466" style="fill:none;stroke:black;stroke-width:5.56px;"/>
                    </g>
                    <g transform="matrix(1.52586,0,0,1,163.902,175.657)">
                        <path d="M3113.19,777.654C3142.51,762.992 3195.95,686.675 3246.82,644.286C3333.62,571.952 3387.27,479.88 3399.61,442.846" style="fill:none;stroke:black;stroke-width:5.56px;"/>
                    </g>
                    <g transform="matrix(1.52586,0,0,1,163.902,175.657)">
                        <path d="M3330.19,383.693C3351.49,404.995 3349.75,417.158 3376.54,430.996C3390.7,438.311 3395.62,440.985 3399.61,442.846" style="fill:none;stroke:black;stroke-width:5.56px;"/>
                    </g>
                    <g transform="matrix(1.52586,0,0,1,163.902,175.657)">
                        <path d="M3399.61,442.846C3402.33,440.389 3434.99,417.282 3445.76,394.201C3453.13,378.419 3464.33,351.788 3465.13,342.616" style="fill:none;stroke:black;stroke-width:5.56px;"/>
                    </g>
                    <g transform="matrix(1.52586,0,0,1,163.902,175.657)">
                        <path d="M3282.84,865.133C3301.02,861.497 3449.47,779.617 3511.48,729.234C3529.96,714.22 3708.6,561.736 3760.94,509.396C3762.47,507.866 3773.41,496.921 3780.49,490.691C3838.35,493.902 3837.85,498.555 3930.89,496.923C3946.87,496.643 3976.3,491.461 3996.16,493.732" style="fill:none;stroke:black;stroke-width:5.56px;"/>
                    </g>
                    <g transform="matrix(1.52586,0,0,1,163.902,175.657)">
                        <path d="M3595.27,483.454C3633.8,521.991 3803.84,461.602 3840.03,455.681C3880.65,449.036 3933.16,464.865 4027.07,402.257" style="fill:none;stroke:black;stroke-width:5.56px;"/>
                    </g>
                    <g transform="matrix(1.52586,0,0,1,163.902,175.657)">
                        <path d="M4629.55,451.22C4381.6,642.549 4435.6,785.297 4435.84,796.204C4437.17,857.307 4432.43,857.343 4399.2,908.461C4368.47,955.735 4358.09,944.65 4350.23,968.247" style="fill:none;stroke:black;stroke-width:5.56px;"/>
                    </g>
                    <g transform="matrix(1.52586,0,0,1,163.902,175.657)">
                        <path d="M4122.65,1020.36C4112.11,1006.31 4016.65,990.912 4106.86,859.348C4167.1,771.497 4180.2,783.347 4219.9,733.059C4300.24,631.287 4313.92,646.768 4415.57,565.452C4478.97,514.735 4498.09,512.957 4500.28,431.983" style="fill:none;stroke:black;stroke-width:5.56px;"/>
                    </g>
                    <g transform="matrix(1.52586,0,0,1,163.902,175.657)">
                        <path d="M4451.17,409.546C4418.22,430.355 4396.29,443.887 4350.09,453.194C4296.75,463.939 4256.28,458.614 4255.76,458.651" style="fill:none;stroke:black;stroke-width:5.56px;"/>
                    </g>
                    <g transform="matrix(1.52586,0,0,1,163.902,175.657)">
                        <path d="M4129.85,370.036C4143.92,401 4251.79,456.611 4255.76,458.651" style="fill:none;stroke:black;stroke-width:5.56px;"/>
                    </g>
                    <g transform="matrix(1.52586,0,0,1,163.902,175.657)">
                        <path d="M3996.16,493.732C4024.07,497.22 4051.92,509.085 4167.67,485.936C4211.93,477.083 4254.03,467.273 4255.76,458.651" style="fill:none;stroke:black;stroke-width:5.56px;"/>
                    </g>
                    <g transform="matrix(1.52586,0,0,1,163.902,175.657)">
                        <path d="M4886.58,512.517C4881.73,546.522 4969.21,620.013 4983.39,660.761C4997.33,700.833 5005.75,758.851 4989.68,823.113" style="fill:none;stroke:black;stroke-width:5.56px;"/>
                    </g>
                    <g transform="matrix(1.52586,0,0,1,163.902,175.657)">
                        <path d="M4219.9,733.059C4271.36,725.224 4296.77,709.286 4331.78,682.235C4343.21,673.41 4361.73,663.968 4398.98,633.756C4358.55,756.791 4420.52,760.998 4435.84,796.204" style="fill:none;stroke:black;stroke-width:5.56px;"/>
                    </g>
                    <g transform="matrix(1.52586,0,0,1,163.902,175.657)">
                        <path d="M3685.66,578.732C3692.73,580.146 3806.28,591.181 3849.6,584.992C3953.13,570.202 3967.36,528.096 4043.24,499.641" style="fill:none;stroke:black;stroke-width:5.56px;"/>
                    </g>
                    <g transform="matrix(1.52586,0,0,1,163.902,175.657)">
                        <path d="M4084.74,498.498C4158.14,515.77 4097.23,605.37 4172.03,613.68C4174.37,613.941 4284.43,607.426 4314.9,637.894" style="fill:none;stroke:black;stroke-width:5.56px;"/>
                    </g>
                    <g transform="matrix(1.52586,0,0,1,163.902,175.657)">
                        <path d="M4446.36,671.005C4504.98,622.158 4660.28,575.856 4721.47,565.659C4749.07,561.059 4795.62,530.672 4819.98,481.97" style="fill:none;stroke:black;stroke-width:5.56px;"/>
                    </g>
                    <g transform="matrix(1.52586,0,0,1,163.902,175.657)">
                        <path d="M3595.27,483.454C3583.44,468.671 3577.81,393.332 3591.65,382.949" style="fill:none;stroke:black;stroke-width:5.56px;"/>
                    </g>
                    <g transform="matrix(1.52586,0,0,1,163.902,175.657)">
                        <path d="M3150.08,512.914C3184.03,528.757 3178.1,557.928 3167.47,595.132" style="fill:none;stroke:black;stroke-width:5.56px;"/>
                    </g>
                    <g transform="matrix(1.52586,0,0,1,163.902,175.657)">
                        <path d="M2988.31,714.288C2984.91,723.892 2964.89,761.4 2964.38,791.482C2963.53,841.222 2968.64,845.218 2933.82,880.041C2902.84,911.018 2802.43,975.588 2907,1042.82C2918.95,1050.5 2957.41,1066.52 2961.88,1068.38C3006.49,1086.97 3036.31,1062.21 3158.95,1128.26C3201.96,1151.41 3201.88,1151.18 3239.41,1181.89C3241.15,1183.32 3251.77,1192.53 3260.91,1199.23" style="fill:none;stroke:black;stroke-width:5.56px;"/>
                    </g>
                    <g transform="matrix(1.52586,0,0,1,163.902,175.657)">
                        <path d="M3260.91,1199.23C3328.31,1196.17 3370.86,1167.39 3457.06,1155.07C3464.8,1153.97 3484.35,1151.17 3551.23,1128.88C3592.67,1115.07 3591.11,1087.86 3665.99,1084.6C3780.82,1079.61 3811,1100.07 3944.76,1083.35C4062.99,1068.57 4116.45,1003.18 4245.36,981.697C4246.67,981.478 4284.58,971.53 4350.23,968.247" style="fill:none;stroke:black;stroke-width:5.56px;"/>
                    </g>
                    <g transform="matrix(1.52586,0,0,1,163.902,175.657)">
                        <path d="M4702.1,930.637C4774.65,924.041 4801.14,867.712 4934.59,841.022C4992.41,829.457 4988.14,813.703 5058.07,807.345C5077.13,805.612 5088.29,805.909 5094.52,805.318" style="fill:none;stroke:black;stroke-width:5.56px;"/>
                    </g>
                    <g transform="matrix(1.52586,0,0,1,163.902,175.657)">
                        <path d="M4932.72,942.678C5038.24,829.622 5300.12,662.64 5312.52,659.539" style="fill:none;stroke:black;stroke-width:5.56px;"/>
                    </g>
                    <g transform="matrix(1.52586,0,0,1,163.902,175.657)">
                        <path d="M5313.77,538.55C5311.82,594.991 5299.68,624.731 5312.52,659.539" style="fill:none;stroke:black;stroke-width:5.56px;"/>
                    </g>
                    <g transform="matrix(1.52586,0,0,1,163.902,175.657)">
                        <path d="M2450.31,985.078C2452.01,986.778 2518.98,1016.89 2598.1,1175.15C2656.44,1291.83 2767.08,1362.04 2806.42,1380.87" style="fill:none;stroke:black;stroke-width:5.56px;"/>
                    </g>
                    <g transform="matrix(1.52586,0,0,1,163.902,175.657)">
                        <path d="M3260.91,1199.23C3182.66,1249.86 3224.02,1312.89 3096.42,1341.89C2953.22,1374.44 2952.52,1367.59 2806.42,1380.87" style="fill:none;stroke:black;stroke-width:5.56px;"/>
                    </g>
                    <g transform="matrix(1.52586,0,0,1,163.902,175.657)">
                        <path d="M4445.68,942.747C4471.76,918.245 4475.27,923.153 4510.96,882.996C4571.39,815.019 4598.75,807.646 4674.48,740.235C4710.44,827.991 4818.43,832.967 4894.32,826.103C4943.32,821.672 4955.44,825.016 4989.68,823.113" style="fill:none;stroke:black;stroke-width:5.56px;"/>
                    </g>
                    <g transform="matrix(1.52586,0,0,1,163.902,175.657)">
                        <path d="M2806.42,1380.87C3104.11,1391.14 3161.66,1417.05 3335.96,1411.05C3533.77,1404.24 3537.46,1420.06 4011.99,1301.43C4120.18,1274.38 4131.98,1276.32 4932.72,942.678" style="fill:none;stroke:black;stroke-width:5.56px;"/>
                    </g>
                    <g transform="matrix(1.52586,0,0,1,163.902,175.657)">
                        <path d="M3335.96,1411.05C3330.2,1398.54 3294.47,1261.72 3423.62,1248.3C3884.05,1200.46 3977.01,1081.17 3980.24,1077.08" style="fill:none;stroke:black;stroke-width:5.56px;"/>
                    </g>
                    <g transform="matrix(1.52586,0,0,1,-8051.91,-1887.34)">
                        <path d="M6624.67,3307.09C6582.53,3370.3 6494.63,3641.18 6240.27,3801.83C6188.12,3834.76 6192.36,3839.24 6139.01,3870.36C6133.98,3873.29 5968.54,3953.58 5950.23,3959.6" style="fill:none;stroke:black;stroke-width:5.56px;"/>
                    </g>
                    <g transform="matrix(1.52586,0,0,1,-8051.91,-1887.34)">
                        <path d="M10696.9,2722.54C10687.9,3062.98 10703.9,3742.54 10699.7,4057.14L5950.23,3959.6" style="fill:none;stroke:black;stroke-width:5.56px;"/>
                    </g>
                    <g transform="matrix(1.52586,0,0,1,-12886.2,-1887.34)">
                        <path d="M13485.3,3005.68C13581.7,3083.38 13668,3128.12 13862.6,3117.33" style="fill:none;stroke:black;stroke-width:5.56px;"/>
                    </g>
                </g>
                <g id="Church-Fill" serif:id="Church Fill" transform="matrix(1.24326,0,0,1.35107,-1136.91,-349.428)">
                    <g transform="matrix(0.817348,0,0,0.501074,6284.94,735.031)">
                        <path d="M1058.96,772.972L1058.44,718.933L1101.31,692.59L1141.4,718.933L1142.68,769.66L1058.96,772.972Z" style="fill:rgb(0,31,36);"/>
                    </g>
                    <g transform="matrix(0.817348,0,0,0.501074,6284.94,735.031)">
                        <path d="M1229.08,637.666L1444.46,635.481L1459.53,659.228L1229.19,662.605L1229.08,637.666Z" style="fill:rgb(83,42,0);"/>
                    </g>
                    <g transform="matrix(0.817348,0,0,0.501074,6284.94,735.031)">
                        <path d="M1459.53,659.228L1461.83,754.079L1229.61,761.954L1229.19,662.605L1459.53,659.228Z" style="fill:rgb(135,135,135);"/>
                    </g>
                    <g transform="matrix(0.817348,0,0,0.501074,6284.94,735.031)">
                        <path d="M960.737,776.858L1229.62,766.221L1229.77,801.954L960.368,811.861L960.737,776.858Z" style="fill:rgb(65,66,66);"/>
                    </g>
                    <g transform="matrix(0.817348,0,0,0.501074,6284.94,735.031)">
                        <path d="M1229.62,766.221L1142.68,769.66L1141.4,718.933L1101.31,692.59L1058.44,718.933L1058.96,772.972L960.737,776.858L961.647,690.422L1080.21,610.527L1080.27,575.182L1228.81,573.456L1229.62,766.221Z" style="fill:rgb(102,103,102);"/>
                    </g>
                </g>
                <g id="Church-Mesh" serif:id="Church Mesh" transform="matrix(1.24326,0,0,1.35107,-1136.91,-349.428)">
                    <g transform="matrix(0.817348,0,0,0.501074,6284.94,735.031)">
                        <path d="M1229.19,662.605L1459.53,659.228L1461.83,754.079L1229.61,761.954L1229.08,637.666L1444.46,635.481L1459.53,659.228" style="fill:none;stroke:black;stroke-width:10.71px;"/>
                    </g>
                    <g transform="matrix(0.817348,0,0,0.501074,6284.94,735.031)">
                        <path d="M961.647,690.422L960.368,811.861L1229.77,801.954L1228.81,573.456L1080.27,575.182L1080.21,610.527L961.647,690.422Z" style="fill:none;stroke:black;stroke-width:10.71px;"/>
                    </g>
                    <g transform="matrix(0.817348,0,0,0.501074,6284.94,735.031)">
                        <path d="M960.737,776.858L1229.62,766.221L1058.96,772.972L1058.44,718.933L1101.31,692.59L1141.4,718.933L1142.68,769.66" style="fill:none;stroke:black;stroke-width:10.71px;"/>
                    </g>
                    <g transform="matrix(0.817348,0,0,0.501074,6284.94,735.031)">
                        <path d="M1166.3,529.809L1203.61,529.809" style="fill:none;stroke:black;stroke-width:10.71px;"/>
                    </g>
                    <g transform="matrix(0.817348,0,0,0.501074,6284.94,735.031)">
                        <path d="M1185.15,573.963L1184.46,511.319" style="fill:none;stroke:black;stroke-width:10.71px;"/>
                    </g>
                </g>
            </g>
        </g>
    </g>
</svg>
